<?xml version="1.0" encoding="UTF-8"?>
<svg width="111px" height="33px" viewBox="0 0 111 33" version="1.1" xmlns="http://www.w3.org/2000/svg" xmlns:xlink="http://www.w3.org/1999/xlink">
    <title>logo ccee</title>
    <desc>Created with Sketch.</desc>
    <g id="Page-1" stroke="none" stroke-width="1" fill="none" fill-rule="evenodd">
        <g id="logo-ccee">
            <g id="Group-4" transform="translate(40.000000, 5.000000)" fill="#FFFFFF">
                <path d="M13.9464286,21.546841 L13.0062199,19.2418301 C12.1704789,19.8431373 11.0735688,20.3442266 9.50655431,20.3442266 C5.79795345,20.3442266 3.81306849,16.6862745 3.81306849,11.3747277 C3.81306849,6.21350763 5.43231675,2.55555556 9.61102194,2.55555556 C11.3347378,2.55555556 12.3794141,3.10675381 13.0584537,3.60784314 L13.9464286,1.50326797 C13.2151552,0.901960784 11.7003745,0 8.87974853,0 C3.70860086,0 0,4.20915033 0,11.4749455 C0,18.6405229 3.70860086,23 8.7752809,23 C11.3347378,23 13.0584537,22.2984749 13.9464286,21.546841" id="Fill-1"></path>
                <path d="M30.4285714,21.546841 L29.491871,19.2418301 C28.6072095,19.8431373 27.5664312,20.3442266 26.0052639,20.3442266 C22.2584622,20.3442266 20.2809835,16.6862745 20.2809835,11.3747277 C20.2809835,6.21350763 21.9462287,2.55555556 26.1093417,2.55555556 C27.8266258,2.55555556 28.8153651,3.10675381 29.5439099,3.60784314 L30.4285714,1.50326797 C29.7000267,0.901960784 28.1388593,0 25.328758,0 C20.2289446,0 16.4821429,4.20915033 16.4821429,11.4749455 C16.4821429,18.6405229 20.2289446,23 25.2767191,23 C27.8266258,23 29.5439099,22.2984749 30.4285714,21.546841" id="Fill-3"></path>
                <path d="M47.1726758,9.37037037 L36.3496783,10.9738562 C36.2470906,4.96078431 38.7091943,2.35511983 41.9919993,2.35511983 C45.2235104,2.35511983 47.1726758,4.35947712 47.1726758,9.37037037 L47.1726758,9.37037037 Z M50.7119499,10.8736383 C50.8145375,3.45751634 47.5317326,0 42.0945869,0 C36.7600289,0 32.9642857,3.90849673 32.9642857,11.4749455 C32.9642857,19.3420479 37.1190857,23 43.0691696,23 C46.1467993,23 48.5576091,22.2984749 49.9425425,21.496732 L48.9679598,19.0915033 C47.7882017,19.7429194 45.941624,20.3943355 43.3769326,20.3943355 C39.2734264,20.3943355 36.8626166,17.8888889 36.452266,12.8779956 L50.7119499,10.8736383 Z" id="Fill-5"></path>
                <path d="M67.4597858,9.37037037 L56.5844263,10.9738562 C56.5331274,4.96078431 58.9441741,2.35511983 62.2273015,2.35511983 C65.45913,2.35511983 67.4597858,4.35947712 67.4597858,9.37037037 L67.4597858,9.37037037 Z M70.9994075,10.8736383 C71.0507064,3.45751634 67.767579,0 62.3811981,0 C56.9948172,0 53.25,3.90849673 53.25,11.4749455 C53.25,19.3420479 57.4052081,23 63.3045777,23 C66.3825096,23 68.7935563,22.2984749 70.1786257,21.496732 L69.2039472,19.0915033 C68.0240733,19.7429194 66.1773142,20.3943355 63.6123709,20.3943355 C59.5597605,20.3943355 57.1487138,17.8888889 56.7383229,12.8779956 L70.9994075,10.8736383 Z" id="Fill-7"></path>
            </g>
            <g id="sol" fill="#FFC107">
                <path d="M22.9823165,1.56695157 C19.8576481,1.93732194 16.4862953,2.70655271 12.9504863,4.1025641 C8.83908046,5.75498575 6.94783378,6.72364672 3.82316534,9.17378917 C8.34571176,7.15099715 12.8408488,5.78347578 20.1317418,5.12820513 C22.872679,4.87179487 25.44916,5.01424501 27.8885942,5.32763533 C29.204244,6.80911681 30.2458002,8.54700855 30.9584439,10.4558405 C27.9708223,9.91452991 24.709107,9.57264957 21.2829355,9.51566952 C16.3492485,9.4017094 11.7444739,9.91452991 7.82493369,10.8262108 C12.045977,10.5698006 17.0344828,10.997151 22.2696729,12.1652422 C25.7780725,12.9344729 29.0397878,13.960114 31.9725906,15.1566952 C32,15.5555556 32,15.9259259 32,16.3247863 C32,17.6068376 31.8629531,18.8319088 31.5888594,20 C30.8762157,19.6296296 30.1087533,19.2307692 29.3412909,18.8603989 C27.2307692,17.8632479 25.0106101,16.951567 22.6259947,16.1538462 C15.7188329,13.8176638 8.97612732,13.2478632 4.04244032,13.6467236 C3.7683466,13.6752137 3.52166225,13.7321937 3.2749779,13.7891738 C2.50751547,13.4188034 1.74005305,13.048433 1,12.6495726 C2.61715296,5.41310541 8.83908046,0 16.2944297,0 C18.6790451,0 20.954023,0.56980057 22.9823165,1.56695157" id="Fill-9"></path>
                <path d="M9.02566372,31.4615385 C12.1256637,31.0626781 15.5,30.3219373 19.0389381,28.8974359 C23.1814159,27.2450142 25.0469027,26.2763533 28.1743363,23.8262108 C23.6477876,25.8490028 19.1761062,27.2165242 11.8787611,27.8717949 C9.1079646,28.1282051 6.52920354,27.985755 4.11504425,27.7008547 C2.79823009,26.1908832 1.75575221,24.4529915 1.04247788,22.5441595 C4.00530973,23.1139601 7.2699115,23.4273504 10.7265487,23.5128205 C15.6646018,23.5982906 20.2734513,23.1139601 24.1690265,22.1737892 C19.9716814,22.4301994 14.9787611,22.002849 9.73893805,20.8632479 C6.22743363,20.0655271 2.93539823,19.039886 0.0274336283,17.8433048 C0,17.4444444 0,17.0740741 0,16.6752137 C0,15.4216524 0.137168142,14.1680912 0.384070796,13 C3.07256637,14.4245014 6.11769912,15.7350427 9.38230088,16.8461538 C16.2681416,19.1823362 23.0168142,19.7521368 27.9823009,19.3532764 C28.2292035,19.3247863 28.5035398,19.2678063 28.7230088,19.2108262 C29.5185841,19.5811966 30.2867257,19.980057 31,20.3504274 C29.4088496,27.5868946 23.1539823,33 15.6920354,33 C13.3053097,33 11.0557522,32.4301994 9.02566372,31.4615385" id="Fill-11"></path>
            </g>
        </g>
    </g>
</svg>